<svg version="1.1" xmlns="http://www.w3.org/2000/svg" width="36" height="124" viewBox="482 438 36 124">
  <text font-size="0">AS15d40S15d5aS22b00S37520M518x562S22b00492x489S15d40494x521S15d5a488x543S37520482x438-C</text>
  <svg x="492" y="489"><g transform="translate(0.198426155669,29.7519795905) scale(0.00968892587986,-0.00986784736349)"><path class="sym-fill" fill="#ffffff" d="M600 1100 l0 -1100 200 0 200 0 0 1100 0 1100 -200 0 -200 0 0 -1100z"/><path class="sym-line" fill="#CC0000" d="M395 2600 l-400 -400 203 0 202 0 0 -1100 0 -1100 100 0 100 0 0 1100 0 1100 200 0 200 0 0 -1100 0 -1100 100 0 100 0 0 1100 0 1100 202 0 203 0 -400 400 c-220 220 -402 400 -405 400 -3 0 -185 -180 -405 -400z"/></g></svg>
  <svg x="494" y="521"><g transform="translate(0.151880478427,26.7522648112) scale(0.00978878857863,-0.00985915829359)"><path class="sym-fill" fill="#ffffff" d="M418 2212 l-208 -196 0 -158 0 -158 -105 0 -105 0 0 -150 0 -150 105 0 105 0 0 -600 0 -600 210 0 210 0 0 600 0 600 320 0 320 0 0 150 0 150 -320 0 -320 0 -2 354 -3 354 -207 -196z"/><path class="sym-line" fill="#0000CC" d="M313 2405 l-313 -296 0 -205 0 -204 105 0 105 0 0 159 0 160 206 195 c113 108 210 196 215 196 5 0 9 -147 9 -355 l0 -355 315 0 315 0 0 203 0 204 -311 294 c-171 162 -316 295 -322 297 -7 1 -153 -131 -324 -293z M0 700 l0 -700 635 0 635 0 0 148 0 147 315 298 c173 164 315 301 315 305 0 4 -33 40 -73 80 l-73 73 -240 -227 -239 -226 -3 401 -2 401 -315 0 -315 0 0 -600 0 -600 -215 0 -215 0 0 600 0 600 -105 0 -105 0 0 -700z"/></g></svg>
  <svg x="488" y="543"><g transform="translate(0.150269419013,18.7501235081) scale(0.00986934154933,-0.00979036105688)"><path class="sym-fill" fill="#ffffff" d="M1400 1265 l0 -635 150 0 150 0 0 635 0 635 -150 0 -150 0 0 -635z"/><path class="sym-line" fill="#0000CC" d="M0 1265 l0 -635 148 0 147 0 298 -315 c164 -173 301 -315 305 -315 4 0 40 33 80 73 l73 73 -227 240 -226 239 401 3 401 2 0 635 0 635 -700 0 -700 0 0 -635z M1700 1265 l0 -635 203 0 204 0 294 311 c162 171 294 317 294 325 0 8 -132 154 -293 324 l-293 310 -205 0 -204 0 0 -635z"/></g></svg>
  <svg x="482" y="438"><g transform="translate(0.149874875465,47.7484130336) scale(0.00988906872676,-0.00991337816395)"><path class="sym-line" fill="#000000" d="M1355 4771 c-68 -32 -113 -75 -147 -141 -34 -66 -33 -195 2 -263 31 -61 91 -117 153 -143 l47 -19 0 -302 0 -303 80 0 80 0 0 303 0 302 48 17 c26 10 66 36 91 60 125 123 125 313 0 436 -88 86 -238 109 -354 53z M2030 4497 l0 -304 -39 -12 c-61 -18 -146 -101 -170 -167 -46 -122 -18 -249 74 -333 71 -64 130 -84 233 -79 95 4 156 33 217 100 98 109 101 279 8 388 -39 45 -96 85 -137 96 l-26 6 0 304 0 304 -80 0 -80 0 0 -303z M1528 3484 c-592 -92 -1088 -447 -1348 -963 -125 -249 -180 -485 -180 -771 0 -480 183 -911 529 -1242 350 -336 780 -508 1271 -508 451 0 864 150 1193 434 326 281 517 620 591 1051 21 121 21 409 0 530 -43 252 -114 444 -237 639 -282 453 -741 750 -1284 831 -127 19 -413 18 -535 -1z m607 -173 c583 -126 1038 -523 1224 -1069 59 -173 75 -277 75 -492 0 -165 -3 -211 -22 -300 -71 -327 -228 -611 -458 -829 -186 -177 -381 -295 -614 -374 -176 -60 -282 -78 -490 -84 -247 -7 -416 19 -628 97 -549 201 -944 674 -1043 1250 -17 97 -17 383 0 480 99 576 495 1050 1043 1250 105 38 177 58 303 81 143 26 467 21 610 -10z"/></g></svg>
</svg>