<svg version="1.1" xmlns="http://www.w3.org/2000/svg" width="24" height="30" viewBox="488 485 24 30">
  <text font-size="0">M512x515S1dc08488x485-D_black,transparent_Z1</text>
  <svg x="488" y="485"><g transform="translate(0.0,30.0) scale(0.01,-0.01)"><path class="sym-fill" fill="transparent" d="M1100 750 l0 -550 550 0 550 0 0 550 0 550 -550 0 -550 0 0 -550z"/><path class="sym-line" fill="black" d="M900 1900 l0 -1100 -450 0 -450 0 0 -100 0 -100 450 0 450 0 0 -300 0 -300 750 0 750 0 0 750 0 750 -650 0 -650 0 0 750 0 750 -100 0 -100 0 0 -1100z m1300 -1150 l0 -550 -550 0 -550 0 0 550 0 550 550 0 550 0 0 -550z"/></g></svg>
</svg>