<svg version="1.1" xmlns="http://www.w3.org/2000/svg" width="20" height="29" viewBox="490 486 20 29">
  <text font-size="0">M510x515S1a000490x486-D_black,transparent_Z1</text>
  <svg x="490" y="486"><g transform="translate(0.0,29.0) scale(0.01,-0.01)"><path class="sym-fill" fill="transparent" d="M700 720 l0 -530 550 0 550 0 0 530 0 530 -550 0 -550 0 0 -530z"/><path class="sym-line" fill="black" d="M1800 2175 l0 -725 -558 0 -559 0 -24 26 c-13 14 -136 134 -272 267 l-248 240 -70 -69 c-38 -37 -69 -73 -69 -79 0 -5 113 -118 250 -250 l250 -240 0 -672 0 -673 750 0 750 0 0 1450 0 1450 -100 0 -100 0 0 -725z m0 -1450 l0 -535 -550 0 -550 0 0 535 0 535 550 0 550 0 0 -535z"/></g></svg>
</svg>