<svg version="1.1" xmlns="http://www.w3.org/2000/svg" width="20" height="29" viewBox="490 486 20 29">
  <text font-size="0">M510x515S1a008490x486-D_black,transparent_Z1</text>
  <svg x="490" y="486"><g transform="translate(0.0,29.0) scale(0.01,-0.01)"><path class="sym-fill" fill="transparent" d="M200 720 l0 -530 550 0 550 0 0 530 0 530 -550 0 -550 0 0 -530z"/><path class="sym-line" fill="black" d="M0 1450 l0 -1450 750 0 750 0 0 673 0 672 250 240 c137 132 250 245 250 250 0 6 -31 42 -69 79 l-70 69 -248 -240 c-136 -133 -259 -253 -272 -267 l-24 -26 -559 0 -558 0 0 725 0 725 -100 0 -100 0 0 -1450z m1300 -725 l0 -535 -550 0 -550 0 0 535 0 535 550 0 550 0 0 -535z"/></g></svg>
</svg>