<svg version="1.1" xmlns="http://www.w3.org/2000/svg" width="24" height="15" viewBox="488 493 24 15">
  <text font-size="0">M512x508S1f500488x493-D_black,transparent_Z1</text>
  <svg x="488" y="493"><g transform="translate(0.0,15.0) scale(0.01,-0.01)"><path class="sym-fill" fill="transparent" d="M200 750 l0 -550 550 0 550 0 0 550 0 550 -550 0 -550 0 0 -550z"/><path class="sym-line" fill="black" d="M0 750 l0 -750 750 0 750 0 0 300 0 300 450 0 450 0 0 100 0 100 -450 0 -450 0 0 350 0 350 -750 0 -750 0 0 -750z m1300 0 l0 -550 -550 0 -550 0 0 550 0 550 550 0 550 0 0 -550z"/></g></svg>
</svg>