<svg xmlns="http://www.w3.org/2000/svg" xmlns:xlink="http://www.w3.org/1999/xlink" version="1.1" baseProfile="full" viewBox="0 0 200 200" width="200" height="200">
<g fill="black">
<path d="M 48.7 16.0 L 51.7 18.0 L 48.7 19.8 L 48.7 183.0 L 36.7 189.0 L 36.7 14.0 Z M 161.4 176.6 L 155.7 171.8 L 150.4 166.6 L 145.7 161.0 L 141.5 155.0 L 138.0 148.6 L 135.0 141.8 L 132.8 134.7 L 131.92783880233765 130.33919410705568 L 129.9 137.5 L 125.7 147.8 L 120.2 157.2 L 113.7 165.5 L 106.1 172.8 L 97.4 179.0 L 87.7 184.0 L 77.0 187.8 L 76.3 186.1 L 85.9 180.6 L 94.3 174.6 L 101.6 168.0 L 107.8 160.7 L 113.0 152.7 L 117.2 144.0 L 120.4 134.5 L 121.72524271011352 128.0 L 76.7 128.0 L 76.7 124.0 L 122.52142858505249 124.0 L 123.7 113.0 L 123.95 103.0 L 90.3 103.0 L 90.3 99.0 L 124.0 99.0 L 124.0 77.0 L 89.7 77.0 L 89.7 73.0 L 124.0 73.0 L 124.0 50.0 L 136.0 52.0 L 139.0 54.0 L 136.0 55.8 L 136.0 73.0 L 148.3 73.0 L 158.3 63.0 L 170.3 73.0 L 170.3 77.0 L 136.0 77.0 L 136.0 99.0 L 147.6 99.0 L 157.6 89.0 L 169.6 99.0 L 169.6 103.0 L 135.8615385055542 103.0 L 135.1 114.0 L 133.46065578460693 124.0 L 161.3 124.0 L 171.3 114.0 L 183.3 124.0 L 183.3 128.0 L 133.85384616851806 128.0 L 136.6 133.1 L 140.3 139.2 L 144.2 144.9 L 148.3 150.1 L 152.7 154.9 L 157.5 159.3 L 162.6 163.3 L 168.1 166.9 L 174.0 170.1 L 180.2 173.0 L 185.9 175.7 L 174.6 184.9 L 167.8 181.0 Z M 14.9 101.4 L 12.4 97.6 L 13.2 93.1 L 14.6 91.5 L 16.0 89.4 L 17.5 86.8 L 18.9 83.8 L 20.3 80.4 L 21.7 76.5 L 23.0 72.2 L 24.4 67.5 L 25.9 62.4 L 27.2 56.9 L 28.9 57.0 L 29.0 62.7 L 29.1 68.1 L 29.0 73.2 L 28.6 77.9 L 28.1 82.3 L 27.5 86.4 L 26.7 90.1 L 25.7 93.6 L 24.6 96.8 L 23.2 99.8 L 19.4 102.3 Z M 62.1 78.2 L 61.4 75.5 L 60.6 72.7 L 59.6 69.8 L 58.4 66.8 L 57.1 63.8 L 55.6 60.7 L 54.1 57.4 L 52.1 54.3 L 53.4 53.1 L 56.2 55.7 L 59.1 58.1 L 61.7 60.7 L 64.1 63.3 L 66.3 66.0 L 68.3 68.8 L 70.1 71.6 L 71.8 74.6 L 73.3 77.5 L 74.5 80.6 L 73.8 85.1 L 70.2 87.9 L 65.7 87.2 L 62.9 83.5 L 62.6 80.9 Z M 73.1 69.0 L 71.7 64.6 L 73.6 60.5 L 74.7 59.9 L 76.0 58.7 L 77.3 57.0 L 78.5 54.7 L 79.7 51.9 L 80.9 48.6 L 81.9 44.8 L 82.8 40.5 L 83.7 35.7 L 84.2 30.5 L 86.0 30.5 L 86.6 35.8 L 86.99183673858643 39.0 L 124.0 39.0 L 124.0 12.9 L 136.0 14.9 L 139.0 16.9 L 136.0 18.7 L 136.0 39.0 L 173.4 39.0 L 173.78400001525878 38.68000001907349 L 173.8 38.6 L 173.85304660797118 38.62246112823486 L 179.4 34.0 L 190.4 43.0 L 185.4 46.0 L 181.96941175460816 47.429411792755126 L 180.8 49.1 L 179.2 51.2 L 177.5 53.4 L 175.6 55.7 L 173.7 58.1 L 171.5 60.6 L 169.2 63.1 L 167.1 65.9 L 165.6 65.0 L 167.0 61.8 L 168.0 58.6 L 169.0 55.5 L 170.0 52.6 L 170.8 49.9 L 171.6 47.3 L 172.3 44.9 L 172.8181818008423 43.0 L 87.35 43.0 L 87.5 45.3 L 87.6 49.6 L 87.4 53.6 L 86.9 57.3 L 86.1 60.7 L 85.0 63.9 L 83.6 66.8 L 81.6 69.5 L 77.2 70.9 Z " />
</g>
</svg>
