<?xml version="1.0" encoding="UTF-8" standalone="no"?>
<svg
   xmlns:dc="http://purl.org/dc/elements/1.1/"
   xmlns:cc="http://creativecommons.org/ns#"
   xmlns:rdf="http://www.w3.org/1999/02/22-rdf-syntax-ns#"
   xmlns:svg="http://www.w3.org/2000/svg"
   xmlns="http://www.w3.org/2000/svg"
   xmlns:sodipodi="http://sodipodi.sourceforge.net/DTD/sodipodi-0.dtd"
   xmlns:inkscape="http://www.inkscape.org/namespaces/inkscape"
   version="1.1"
   viewBox="0 0 17.924191 17.732813"
   width="17.924191"
   height="17.732813"
   id="svg6"
   sodipodi:docname="u2ff0-u5fc4-u5b9f_mod.svg"
   inkscape:version="0.92.5 (2060ec1f9f, 2020-04-08)">
  <metadata
     id="metadata12">
    <rdf:RDF>
      <cc:Work
         rdf:about="">
        <dc:format>image/svg+xml</dc:format>
        <dc:type
           rdf:resource="http://purl.org/dc/dcmitype/StillImage" />
        <dc:title></dc:title>
      </cc:Work>
    </rdf:RDF>
  </metadata>
  <defs
     id="defs10" />
  <sodipodi:namedview
     pagecolor="#ffffff"
     bordercolor="#666666"
     borderopacity="1"
     objecttolerance="10"
     gridtolerance="10"
     guidetolerance="10"
     inkscape:pageopacity="0"
     inkscape:pageshadow="2"
     inkscape:window-width="1920"
     inkscape:window-height="1080"
     id="namedview8"
     showgrid="false"
     inkscape:zoom="32"
     inkscape:cx="5.1527613"
     inkscape:cy="7.1220887"
     inkscape:window-x="768"
     inkscape:window-y="0"
     inkscape:window-maximized="1"
     inkscape:current-layer="svg6" />
  <g
     id="g4"
     transform="matrix(0.1006977,0,0,0.1006974,-1.2486515,-1.2989965)"
     style="fill:#000000;stroke-width:9.93073177">
    <path
       d="m 48.7,16 3,2 -3,1.8 V 183 l -12,6 V 14 Z m 112.7,160.6 -5.7,-4.8 -5.3,-5.2 -4.7,-5.6 -4.2,-6 -3.5,-6.4 -3,-6.8 -2.2,-7.1 -0.87216,-4.36081 L 129.9,137.5 l -4.2,10.3 -5.5,9.4 -6.5,8.3 -7.6,7.3 -8.7,6.2 -9.7,5 -10.7,3.8 -0.7,-1.7 9.6,-5.5 8.4,-6 7.3,-6.6 6.2,-7.3 5.2,-8 4.2,-8.7 3.2,-9.5 1.32524,-6.5 H 76.7 v -4 h 45.82143 L 123.7,113 123.95,103 H 90.3 V 99 H 124 V 77 H 89.7 V 73 H 124 V 50 l 12,2 3,2 -3,1.8 V 73 h 12.3 l 10,-10 12,10 v 4 H 136 v 22 h 11.6 l 10,-10 12,10 v 4 H 135.86154 L 135.1,114 133.46066,124 H 161.3 l 10,-10 12,10 v 4 h -49.44615 l 2.74615,5.1 3.7,6.1 3.9,5.7 4.1,5.2 4.4,4.8 4.8,4.4 5.1,4 5.5,3.6 5.9,3.2 6.2,2.9 5.7,2.7 -11.3,9.2 -6.8,-3.9 z m -146.5,-75.2 -2.5,-3.8 0.8,-4.5 1.4,-1.6 1.4,-2.1 1.5,-2.6 1.4,-3 1.4,-3.4 1.4,-3.9 1.3,-4.3 1.4,-4.7 1.5,-5.1 1.3,-5.5 1.7,0.1 0.1,5.7 0.1,5.4 -0.1,5.1 -0.4,4.7 -0.5,4.4 -0.6,4.1 -0.8,3.7 -1,3.5 -1.1,3.2 -1.4,3 -3.8,2.5 z m 47.2,-23.2 -0.7,-2.7 -0.8,-2.8 -1,-2.9 -1.2,-3 -1.3,-3 -1.5,-3.1 -1.5,-3.3 -2,-3.1 1.3,-1.2 2.8,2.6 2.9,2.4 2.6,2.6 2.4,2.6 2.2,2.7 2,2.8 1.8,2.8 1.7,3 1.5,2.9 1.2,3.1 -0.7,4.5 -3.6,2.8 -4.5,-0.7 -2.8,-3.7 -0.3,-2.6 z m 11,-9.2 -1.4,-4.4 1.9,-4.1 1.1,-0.6 1.3,-1.2 1.3,-1.7 1.2,-2.3 1.2,-2.8 1.2,-3.3 1,-3.8 0.9,-4.3 0.9,-4.8 0.5,-5.2 H 86 l 0.6,5.3 0.391837,3.2 H 124 V 12.9 l 12,2 3,2 -3,1.8 V 39 h 37.4 l 0.384,-0.32 0.016,-0.08 0.053,0.02246 L 179.4,34 l 11,9 -5,3 -3.43059,1.429412 L 180.8,49.1 l -1.6,2.1 -1.7,2.2 -1.9,2.3 -1.9,2.4 -2.2,2.5 -2.3,2.5 -2.1,2.8 -1.5,-0.9 1.4,-3.2 1,-3.2 1,-3.1 1,-2.9 0.8,-2.7 0.8,-2.6 0.7,-2.4 0.51818,-1.9 H 87.35 l 0.15,2.3 0.1,4.3 -0.2,4 -0.5,3.7 -0.8,3.4 -1.1,3.2 -1.4,2.9 -2,2.7 -4.4,1.4 z"
       id="path2"
       inkscape:connector-curvature="0"
       style="stroke-width:9.93073177" />
  </g>
</svg>
